<svg width="46" height="47" viewBox="0 0 46 47" fill="none" xmlns="http://www.w3.org/2000/svg">
<path d="M0 46.3934C0.18155 45.7367 0.334435 45.1371 0.50643 44.5375C1.39507 41.3205 2.27416 38.1035 3.1628 34.8961C3.22013 34.6962 3.21057 34.5249 3.10547 34.3345C1.67217 31.7838 0.745312 29.0617 0.382211 26.1588C-0.257993 21.0669 0.66887 16.2604 3.24879 11.8252C5.91472 7.26623 9.71772 3.98263 14.6291 2.01247C17.9639 0.670479 21.442 0.175559 25.0348 0.480125C30.1278 0.917939 34.5997 2.83099 38.3931 6.23832C42.3968 9.83601 44.8716 14.2998 45.7029 19.6202C46.5629 25.1119 45.5596 30.2895 42.6452 35.0293C39.7117 39.7977 35.5552 43.0718 30.2233 44.8516C27.4045 45.7938 24.4902 46.1365 21.528 45.9366C18.3175 45.7177 15.2789 44.8611 12.4219 43.3668C12.2116 43.2526 12.0205 43.2431 11.8008 43.3097C7.99777 44.3091 4.19477 45.2989 0.382211 46.2983C0.277103 46.3363 0.171995 46.3554 0 46.3934ZM5.5134 40.9588C5.67584 40.9208 5.77139 40.9017 5.86694 40.8732C8.00732 40.3116 10.1477 39.7691 12.2785 39.1885C12.5843 39.1029 12.8136 39.141 13.0812 39.3028C15.4318 40.7399 17.9735 41.6536 20.7158 41.9772C25.2355 42.5197 29.4494 41.5965 33.2906 39.16C39.5684 35.1816 42.9032 28.11 41.9381 20.7433C41.1737 14.9184 38.2211 10.3785 33.2619 7.20913C27.1657 3.30688 19.5501 3.26881 13.3201 6.96167C5.97205 11.3112 2.44615 20.1341 4.77764 28.3289C5.33185 30.261 6.17271 32.0598 7.27157 33.7444C7.34801 33.8682 7.40534 34.068 7.36712 34.2013C6.9658 35.7146 6.54537 37.2279 6.12493 38.7412C5.92427 39.4646 5.72361 40.1879 5.5134 40.9588Z" fill="#580002"/>
<path d="M11.4569 17.9453C11.4856 16.0608 12.25 14.5094 13.6069 13.2245C14.0178 12.8438 14.5051 12.6534 15.0784 12.6534C15.4415 12.6534 15.795 12.6915 16.1581 12.6725C16.7124 12.6439 17.0468 12.9295 17.2474 13.3863C17.4863 13.9193 17.7157 14.4618 17.9354 15.0043C18.3559 15.9941 18.7667 16.984 19.1776 17.9738C19.3114 18.2974 19.3114 18.6115 19.1585 18.9541C18.8241 19.706 18.2603 20.2866 17.7157 20.8767C17.2857 21.3526 17.2379 21.562 17.5723 22.114C19.3305 25.0359 21.7002 27.2631 24.8821 28.586C25.1019 28.6812 25.3217 28.7859 25.5414 28.8716C25.9141 29.0143 26.2485 28.9382 26.5065 28.6241C27.0894 27.9198 27.6818 27.225 28.236 26.5017C28.6756 25.9306 28.9049 25.8069 29.5833 26.1019C30.6917 26.5873 31.7906 27.1203 32.8799 27.6438C33.3385 27.8627 33.7876 28.1006 34.2463 28.3195C34.5712 28.4718 34.7049 28.7288 34.7049 29.081C34.7049 29.89 34.5521 30.6609 34.2558 31.4033C34.0074 32.0314 33.501 32.4693 32.9754 32.869C31.2746 34.1539 29.354 34.468 27.3378 33.954C25.0828 33.3734 22.9328 32.5168 20.9645 31.232C18.633 29.7091 16.6646 27.7866 14.9542 25.607C14.0273 24.4363 13.1291 23.2466 12.4603 21.9046C11.8487 20.6578 11.4187 19.3539 11.4569 17.9453Z" fill="#580002"/>
</svg>
