<svg width="46" height="49" viewBox="0 0 46 49" fill="none" xmlns="http://www.w3.org/2000/svg">
<path d="M22.9953 48.3709C19.9503 48.3709 16.9151 48.4016 13.8701 48.3606C10.4812 48.3196 7.48534 47.1205 4.90198 44.8143C2.85887 42.9899 1.45423 40.7351 0.638955 38.0702C0.128177 36.4201 -0.00933957 34.6982 0.00048307 32.9558C0.0201284 26.8369 -0.0191622 20.718 0.0201284 14.6094C0.0397736 11.7908 0.894344 9.20792 2.40703 6.87106C4.24386 4.04222 6.73881 2.11533 9.85259 1.06989C11.3947 0.557423 12.986 0.393433 14.6068 0.393433C20.4021 0.413931 26.1975 0.383183 31.9928 0.413931C35.7451 0.424181 38.9767 1.82835 41.6878 4.52394C43.78 6.60457 45.106 9.15667 45.7052 12.1085C45.941 13.2769 45.9901 14.4659 45.9901 15.665C45.9803 21.7839 46.0294 27.9028 45.9704 34.0115C45.9213 38.265 44.2908 41.8215 41.2654 44.6811C39.3402 46.4952 37.081 47.6227 34.5369 48.1454C33.3876 48.3811 32.2286 48.4016 31.0597 48.3914C28.3683 48.3709 25.6769 48.3811 22.9953 48.3709C22.9953 48.3811 22.9953 48.3811 22.9953 48.3709ZM23.0248 4.4317V4.42145C20.0288 4.42145 17.0329 4.42145 14.0272 4.42145C13.0744 4.42145 12.1314 4.55469 11.2081 4.83142C6.8174 6.18435 3.86078 10.2841 3.85096 15.0603C3.85096 21.2817 3.84114 27.5031 3.86078 33.7245C3.86078 34.401 3.90007 35.0979 4.02777 35.7539C4.99038 40.7761 9.11589 44.3634 14.1254 44.3839C20.0583 44.4044 25.9814 44.3941 31.9142 44.3839C33.1617 44.3839 34.3797 44.1584 35.5486 43.6869C39.4875 42.0983 42.1396 38.2342 42.1494 33.6425C42.1593 27.4519 42.1593 21.2715 42.1396 15.0808C42.1396 14.3736 42.0709 13.6459 41.9333 12.949C41.4717 10.6531 40.4207 8.69545 38.7312 7.13754C36.9238 5.45664 34.8021 4.49319 32.3759 4.4522C29.2621 4.3907 26.1484 4.4317 23.0248 4.4317Z" fill="#580002"/>
<path d="M11.5127 24.3463C11.5127 17.7456 16.6401 12.4262 22.9757 12.3955C29.1836 12.3647 34.4977 17.5919 34.4977 24.3668C34.4977 31.1109 29.3605 36.3996 22.9659 36.3893C16.4535 36.3688 11.4538 30.8239 11.5127 24.3463ZM23.0052 16.3927C18.8109 16.3927 15.3632 19.9595 15.3337 24.295C15.3043 28.733 18.7127 32.3613 22.9659 32.3818C27.2388 32.4023 30.6669 28.8048 30.6669 24.3463C30.657 19.98 27.2093 16.3927 23.0052 16.3927Z" fill="#580002"/>
<path d="M32.4546 11.8727C32.4546 10.3763 33.6137 9.1464 35.0281 9.1874C36.4917 9.23864 37.5329 10.3661 37.5624 11.8522C37.5918 13.3384 36.4131 14.5171 34.979 14.5171C33.5744 14.5171 32.4546 13.3487 32.4546 11.8727Z" fill="#580002"/>
</svg>
