<svg width="69" height="39" viewBox="0 0 69 39" fill="none" xmlns="http://www.w3.org/2000/svg">
<path d="M34.9625 20.0742C40.5671 20.0742 45.1105 15.5912 45.1105 10.0611C45.1105 4.53109 40.5671 0.0480957 34.9625 0.0480957C29.358 0.0480957 24.8145 4.53109 24.8145 10.0611C24.8145 15.5912 29.358 20.0742 34.9625 20.0742Z" fill="#580002"/>
<path d="M53.133 23.7444C56.9625 23.7444 60.0669 20.6813 60.0669 16.9028C60.0669 13.1243 56.9625 10.0612 53.133 10.0612C49.3036 10.0612 46.1992 13.1243 46.1992 16.9028C46.1992 20.6813 49.3036 23.7444 53.133 23.7444Z" fill="#580002"/>
<path d="M15.2465 23.7444C19.076 23.7444 22.1803 20.6813 22.1803 16.9028C22.1803 13.1243 19.076 10.0612 15.2465 10.0612C11.4171 10.0612 8.31271 13.1243 8.31271 16.9028C8.31271 20.6813 11.4171 23.7444 15.2465 23.7444Z" fill="#580002"/>
<path d="M21.973 25.4947C17.1355 23.5381 14.6698 21.15 14.6698 21.15C10.9097 26.4762 0.499207 27.6271 0.499207 27.6271V31.0591H5.51974V29.8347C5.51974 29.8363 13.9229 28.9043 21.973 25.4947Z" fill="#580002"/>
<path d="M68.4992 27.5408C58.3787 26.1006 53.1735 21.0637 53.1735 21.0637C51.8661 22.9163 49.7552 24.2623 47.5568 25.2326C52.0784 27.138 57.7016 28.882 64.4053 29.8363V30.9744H68.5008V27.5408H68.4992Z" fill="#580002"/>
<path d="M33.9047 17.8571C34.9253 18.741 37.3554 20.6864 41.2078 22.8476C45.8477 25.45 53.4976 28.8468 63.7557 30.3878V38.0481H6.16777V30.3973C7.69872 30.1879 12.0955 29.5022 17.0432 27.9676C24.962 25.5091 30.6289 22.1107 33.9047 17.8571Z" fill="#580002"/>
</svg>
