<svg width="30" height="37" viewBox="0 0 30 37" fill="none" xmlns="http://www.w3.org/2000/svg">
<path d="M23.8349 4.85725V0.501038H21.6003V4.10387C16.5952 2.23866 15.569 0.501038 15.569 0.501038C13.2475 2.38043 10.835 3.64415 8.6397 4.49676V0.501038H6.40511V5.25621C2.97874 6.25666 0.5 6.25666 0.5 6.25666V9.9V26.8347V28.702V30.1824C10.4501 31.5859 15.569 36.499 15.569 36.499C19.2643 31.3044 29.5 30.1824 29.5 30.1824V28.702V26.8347V9.9V9.75419V6.25666C27.2861 5.81517 25.4157 5.33925 23.8349 4.85725ZM28.3041 26.8347H1.63799V9.9H28.3041V26.8347Z" fill="#580002"/>
<path d="M26.562 13.3145H23.7646V17.5978H26.562V13.3145Z" fill="#580002"/>
<path d="M26.562 19.141H23.7646V23.4223H26.562V19.141Z" fill="#580002"/>
<path d="M22.459 13.3145H19.6616V17.5978H22.459V13.3145Z" fill="#580002"/>
<path d="M22.459 19.141H19.6616V23.4223H22.459V19.141Z" fill="#580002"/>
<path d="M18.4492 13.3145H15.6519V17.5978H18.4492V13.3145Z" fill="#580002"/>
<path d="M18.4492 19.141H15.6519V23.4223H18.4492V19.141Z" fill="#580002"/>
<path d="M14.3462 13.3145H11.5488V17.5978H14.3462V13.3145Z" fill="#580002"/>
<path d="M14.3462 19.141H11.5488V23.4223H14.3462V19.141Z" fill="#580002"/>
<path d="M10.3384 13.3145H7.54102V17.5978H10.3384V13.3145Z" fill="#580002"/>
<path d="M10.3384 19.141H7.54102V23.4223H10.3384V19.141Z" fill="#580002"/>
<path d="M6.23536 13.3145H3.43799V17.5978H6.23536V13.3145Z" fill="#580002"/>
<path d="M6.23536 19.141H3.43799V23.4223H6.23536V19.141Z" fill="#580002"/>
</svg>
